<svg width="431" height="472" viewBox="0 0 431 472" fill="none" xmlns="http://www.w3.org/2000/svg">
<path d="M241.662 37.9491C233.154 42.8645 224.293 45.9407 215.501 47.6581C206.708 45.9407 197.847 42.8645 189.34 37.9491C144.34 11.9491 114.34 -13.0509 50.3396 37.9491C-0.86039 78.7491 5.67297 184.949 15.3396 232.949L50.3396 405.949C61.3396 450.949 110.14 508.349 145.34 405.949C162.792 355.178 189.324 334.103 215.501 328.439C241.678 334.103 268.209 355.178 285.662 405.949C320.862 508.349 369.662 450.949 380.662 405.949L415.662 232.949C425.328 184.949 431.862 78.7491 380.662 37.9491C316.662 -13.0509 286.662 11.9491 241.662 37.9491Z" fill="white"/>
<path d="M146.662 37.9491C163.328 46.6158 205.662 58.7491 241.662 37.9491C286.662 11.9491 316.662 -13.0509 380.662 37.9491C431.862 78.7491 425.328 184.949 415.662 232.949L380.662 405.949C369.662 450.949 320.862 508.349 285.662 405.949C250.462 303.549 178.328 321.949 146.662 343.949M284.34 37.9491C267.673 46.6158 225.34 58.7491 189.34 37.9491C144.34 11.9491 114.34 -13.0509 50.3396 37.9491C-0.86039 78.7491 5.67297 184.949 15.3396 232.949L50.3396 405.949C61.3396 450.949 110.14 508.349 145.34 405.949C180.54 303.549 252.673 321.949 284.34 343.949" stroke="#2660A4" stroke-width="16"/>
</svg>
