<svg width="576" height="558" viewBox="0 0 576 558" fill="none" xmlns="http://www.w3.org/2000/svg">
<path d="M146.291 118.017C162.958 126.684 205.291 138.817 241.291 118.017C286.291 92.0174 316.291 67.0174 380.291 118.017C431.491 158.817 424.958 265.017 415.291 313.017L380.291 486.017C369.291 531.017 320.491 588.417 285.291 486.017C250.091 383.617 177.958 402.017 146.291 424.017M283.969 118.017C267.302 126.684 224.969 138.817 188.969 118.017C143.969 92.0174 113.969 67.0174 49.969 118.017C-1.231 158.817 5.30236 265.017 14.969 313.017L49.969 486.017C60.969 531.017 109.769 588.417 144.969 486.017C180.169 383.617 252.302 402.017 283.969 424.017" stroke="white" stroke-width="16"/>
<path d="M474.05 22.2998C467.879 22.9805 451.744 25.9832 436.568 32.5481M479.391 37.4438C472.545 40.3158 454.546 46.391 437.311 47.7158M485.046 53.5713C474.438 55.239 450.376 59.4932 438.994 63.1688M487.572 69.6282C479.025 72.6851 457.843 78.3211 441.495 76.4107M487.546 85.5149C478.734 87.5762 457.906 91.6983 445.08 91.696M486.916 99.5758C480.442 99.9104 464.28 101.263 451.434 103.997M458.77 10.5312C455.227 11.3789 451.488 12.4626 447.767 13.6645C442.82 11.3687 436.637 9.59281 430.023 9.61669C419.974 9.65298 409.034 13.8501 400.06 26.4089L399.741 26.8558L487.106 551.579L488.05 551.729C495.032 552.832 506.046 553.717 516.445 552.78C521.645 552.311 526.743 551.383 531.126 549.769C535.498 548.159 539.267 545.827 541.66 542.478C542.111 541.847 542.365 540.969 542.53 540.048C542.703 539.085 542.808 537.898 542.856 536.518C542.954 533.754 542.831 530.088 542.516 525.637C541.885 516.726 540.477 504.543 538.463 489.878C534.433 460.541 527.964 421.184 520.385 378.021C505.229 291.7 485.625 190.105 472.191 122.877L471.104 116.349C477.29 115.985 482.056 115.233 485.676 114.263C489.641 113.2 492.334 111.848 494.012 110.366C495.644 108.924 496.404 107.259 496.205 105.639C498.379 78.2965 495.097 58.5618 490.979 44.003C488.921 36.7257 486.657 30.7539 484.785 25.8162C482.894 20.8273 481.451 17.0061 480.933 13.8955C480.645 12.1638 479.665 10.8832 478.234 10.042C476.857 9.23237 475.093 8.84216 473.152 8.71493C469.266 8.46021 464.19 9.23418 458.77 10.5312ZM478.317 14.3311C478.883 17.7314 480.42 21.7839 482.253 26.6182L482.301 26.745C484.173 31.6842 486.402 37.5639 488.427 44.7248C492.473 59.0275 495.72 78.4909 493.549 105.574L493.586 105.694L493.563 105.898C493.647 106.403 493.494 107.284 492.256 108.379C491.004 109.485 488.746 110.694 484.989 111.701C481.614 112.606 477.111 113.326 471.199 113.686C470.844 113.73 470.483 113.762 470.117 113.781C469.824 113.796 469.534 113.803 469.246 113.802C468.607 113.854 467.97 113.874 467.337 113.863C460.885 114.064 452.992 113.876 443.386 113.128C436.921 100.491 425.353 65.9569 428.561 23.7254C433.836 21.4584 440.654 18.7935 447.58 16.515C448.781 16.058 449.982 15.6779 451.17 15.3732C453.963 14.5168 456.734 13.7454 459.387 13.1106C464.74 11.8295 469.502 11.1335 472.978 11.3615C474.719 11.4755 476.017 11.8148 476.89 12.3284C477.71 12.8103 478.17 13.4467 478.317 14.3311ZM426.773 21.609C431.498 19.5553 437.597 17.1279 443.965 14.934C439.853 13.3576 435.066 12.2507 430.033 12.2689C420.941 12.3017 410.944 16.0006 402.538 27.5079L489.408 549.253C496.257 550.262 506.532 551.01 516.207 550.138C521.272 549.682 526.121 548.786 530.209 547.281C534.308 545.772 537.534 543.691 539.502 540.936C539.597 540.804 539.77 540.412 539.92 539.579C540.062 538.789 540.16 537.739 540.206 536.425C540.298 533.798 540.182 530.239 539.87 525.824C539.246 517.001 537.847 504.886 535.835 490.239C531.813 460.952 525.35 421.633 517.773 378.48C502.62 292.177 483.017 190.592 469.586 123.376L469.577 123.334L468.436 116.478C461.499 116.745 452.942 116.555 442.443 115.714L441.717 115.656L441.377 115.012C434.727 102.45 422.462 66.589 425.98 22.7192L426.043 21.9261L426.773 21.609Z" stroke="white" stroke-width="6"/>
</svg>
